<?xml version="1.0" encoding="utf-8"?>
<!-- Generator: Adobe Illustrator 22.0.0, SVG Export Plug-In . SVG Version: 6.00 Build 0)  -->
<svg version="1.1" id="图层_1" xmlns="http://www.w3.org/2000/svg" xmlns:xlink="http://www.w3.org/1999/xlink" x="0px" y="0px"
	 viewBox="0 0 64.5 28.6" style="enable-background:new 0 0 64.5 28.6;" xml:space="preserve">
<path d="M32.3,26.9c-0.9,0-1.7,0-2.6,0c-0.1,0-0.2-0.1-0.2-0.2c-0.1-1.3-0.2-2.6-0.4-4c-0.1-1.2-0.2-2.5-0.3-3.7
	c-0.1-1.3-0.2-2.5-0.4-3.8c0-0.1,0-0.1,0-0.3c0.3,0,0.6-0.1,0.9-0.1c0.8,0,1.6,0,2.5,0c0.2,0,0.3,0.1,0.3,0.3c0,0.4,0.1,0.8,0.1,1.2
	c0,1.9,0,3.7,0,5.6c0,1.5,0.1,3,0.1,4.5C32.3,26.6,32.3,26.7,32.3,26.9z"/>
<path d="M32,13.5c-0.6,0-1.1-0.1-1.7-0.1c0-1.5,0-2.9,0-4.4c0.4,0,0.9,0,1.4,0c0.2,0,0.4,0.1,0.3,0.4c0,1.3,0,2.6,0,3.9
	C32,13.3,32,13.4,32,13.5z"/>
<path d="M28.1,9c0.5,0,0.9,0,1.4,0c0.2,0,0.3,0,0.3,0.3c0,0.6,0,1.2,0,1.9c0,0.8,0,1.5,0,2.3c-0.5,0-0.9,0.1-1.3,0.1
	C28.3,12.1,28.2,10.6,28.1,9z"/>
<path d="M27.4,25.4c-0.8-0.1-1.6-0.1-2.4-0.2c-0.7-7.2-1.3-14.5-2.8-21.8c0.5-0.1,0.9-0.1,1.4-0.2c0.5,0,1.1-0.1,1.6-0.1
	c0.4,0,0.6,0.1,0.6,0.5C25.9,4.9,26,6,26.1,7.2c0.1,1.6,0.2,3.1,0.3,4.7c0.1,1.1,0.2,2.2,0.2,3.4c0.1,1.2,0.2,2.4,0.3,3.7
	c0.1,0.9,0.2,1.8,0.2,2.7c0.1,1,0.2,1.9,0.3,2.9c0,0.3,0.1,0.6,0.1,0.8C27.6,25.4,27.6,25.5,27.4,25.4z"/>
<path d="M22.6,19.7c0.1,0.9,0.2,1.8,0.3,2.7c0.1,1,0.3,1.9,0.4,2.9c0,0.3,0.1,0.6,0.1,0.9c-0.9,0.1-1.8,0.2-2.7,0.3
	c-0.8-3.9-1.6-7.8-2.4-11.8c0.6-0.1,1.3-0.2,1.9-0.3c0.5-0.1,0.9-0.1,1.4-0.1c0.2,0,0.4,0.1,0.4,0.3c0.1,0.6,0.2,1.2,0.3,1.9
	C22.4,17.6,22.5,18.7,22.6,19.7z"/>
<path d="M19.5,8.6c0.5,0,1,0,1.5,0c0.2,0,0.2,0.1,0.3,0.3c0.1,1.4,0.3,2.8,0.4,4.2c-0.5,0-1.1,0.1-1.6,0.1
	C19.9,11.6,19.7,10.1,19.5,8.6z"/>
<path d="M17.4,9c0.5-0.1,1-0.2,1.5-0.2C19.1,8.7,19,8.9,19,9c0.1,0.5,0.1,1,0.2,1.5c0.1,0.8,0.2,1.6,0.3,2.3c0,0.1,0,0.2,0,0.3
	c-0.4,0.1-0.8,0.2-1.3,0.2C17.9,11.9,17.7,10.5,17.4,9z"/>
<path d="M18.1,20.7c-1-0.7-2.1-1.2-3.2-1.7c-2.3-0.9-4.7-1.2-7.1-1.1c-0.6,0-1.1,0-1.8,0.1C6,18,6,17.9,6,17.8
	c-0.2-1.7-0.3-3.4-0.5-5.1c-0.1-1.4-0.2-2.8-0.2-4.2c0-2.7,0-5.4-0.1-8c0-0.6,0-0.6-0.6-0.4C3.2,0.7,1.6,1.3,0.1,1.9
	C0,1.9,0,2.1,0,2.2c0.5,1.7,0.8,3.4,1,5.2c0.2,1.5,0.4,3,0.6,4.4c0.2,1.3,0.3,2.6,0.5,3.9c0.2,1.3,0.3,2.7,0.5,4
	c0.2,1.3,0.3,2.5,0.5,3.8c0.1,0.9,0.2,1.8,0.3,2.7c0.1,0.7,0.1,1.4,0.1,2.1c0,0.1,0,0.2,0.2,0.2c0.3,0,0.7,0,1,0
	c1.6-0.2,3.2-0.3,4.7-0.5c1.2-0.2,2.4-0.5,3.5-0.8c1.6-0.5,3-1.5,4.4-2.5c0.6-0.4,1-0.9,1.3-1.6C19,22,18.9,21.3,18.1,20.7z
	 M9.1,25.8c-0.2-1.7-0.5-3.3-0.7-5c0.9,0.2,4.7,1.7,4.9,1.9C11.9,23.7,10.5,24.7,9.1,25.8z"/>
<path d="M64.4,26.9c-0.9,0-1.7,0-2.6,0c-0.1,0-0.2-0.1-0.2-0.2c-0.1-1.3-0.2-2.6-0.4-4c-0.1-1.2-0.2-2.5-0.3-3.7
	c-0.1-1.3-0.2-2.5-0.4-3.8c0-0.1,0-0.1,0-0.3c0.3,0,0.6-0.1,0.9-0.1c0.8,0,1.6,0,2.5,0c0.2,0,0.3,0.1,0.3,0.3c0,0.4,0.1,0.8,0.1,1.2
	c0,1.9,0,3.7,0,5.6c0,1.5,0.1,3,0.1,4.5C64.4,26.6,64.4,26.7,64.4,26.9z"/>
<path d="M64.2,13.5c-0.6,0-1.1-0.1-1.7-0.1c0-1.5,0-2.9,0-4.4c0.4,0,0.9,0,1.4,0c0.2,0,0.4,0.1,0.3,0.4c0,1.3,0,2.6,0,3.9
	C64.2,13.3,64.2,13.4,64.2,13.5z"/>
<path d="M60.3,9c0.5,0,0.9,0,1.4,0c0.2,0,0.3,0,0.3,0.3c0,0.6,0,1.2,0,1.9c0,0.8,0,1.5,0,2.3c-0.5,0-0.9,0.1-1.3,0.1
	C60.5,12.1,60.4,10.6,60.3,9z"/>
<path d="M59.6,25.4c-0.8-0.1-1.6-0.1-2.4-0.2c-0.7-7.2-1.3-14.5-2.8-21.8c0.5-0.1,0.9-0.1,1.4-0.2c0.5,0,1.1-0.1,1.6-0.1
	c0.4,0,0.6,0.1,0.6,0.5c0.1,1.1,0.2,2.3,0.2,3.4c0.1,1.6,0.2,3.1,0.3,4.7c0.1,1.1,0.2,2.2,0.2,3.4c0.1,1.2,0.2,2.4,0.3,3.7
	c0.1,0.9,0.2,1.8,0.2,2.7c0.1,1,0.2,1.9,0.3,2.9c0,0.3,0.1,0.6,0.1,0.8C59.8,25.4,59.7,25.5,59.6,25.4z"/>
<path d="M54.8,19.7c0.1,0.9,0.2,1.8,0.3,2.7c0.1,1,0.3,1.9,0.4,2.9c0,0.3,0.1,0.6,0.1,0.9c-0.9,0.1-1.8,0.2-2.7,0.3
	c-0.8-3.9-1.6-7.8-2.4-11.8c0.6-0.1,1.3-0.2,1.9-0.3c0.5-0.1,0.9-0.1,1.4-0.1c0.2,0,0.4,0.1,0.4,0.3c0.1,0.6,0.2,1.2,0.3,1.9
	C54.6,17.6,54.7,18.7,54.8,19.7z"/>
<path d="M51.7,8.6c0.5,0,1,0,1.5,0c0.2,0,0.2,0.1,0.3,0.3c0.1,1.4,0.3,2.8,0.4,4.2c-0.5,0-1.1,0.1-1.6,0.1
	C52.1,11.6,51.9,10.1,51.7,8.6z"/>
<path d="M49.5,9c0.5-0.1,1-0.2,1.5-0.2c0.2,0,0.2,0.2,0.2,0.3c0.1,0.5,0.1,1,0.2,1.5c0.1,0.8,0.2,1.6,0.3,2.3c0,0.1,0,0.2,0,0.3
	c-0.4,0.1-0.8,0.2-1.3,0.2C50.1,11.9,49.8,10.5,49.5,9z"/>
<path d="M50.2,20.7c-1-0.7-2-1.2-3.2-1.7c-2.3-0.9-4.7-1.2-7.1-1.2c-0.6,0-1.1,0-1.8,0.1c0,0,0-0.1,0-0.2c-0.2-1.7-0.3-3.4-0.5-5.1
	c-0.1-1.4-0.1-2.8-0.2-4.2c0-2.7-0.1-5.4-0.1-8c0-0.6,0-0.6-0.6-0.4c-1.5,0.6-3.1,1.2-4.6,1.8c-0.1,0-0.1,0.2-0.1,0.3
	c0.5,1.7,0.8,3.4,1,5.2c0.2,1.5,0.4,3,0.6,4.4c0.2,1.3,0.3,2.6,0.5,3.9c0.2,1.3,0.3,2.6,0.5,4c0.2,1.3,0.3,2.5,0.5,3.8
	c0.1,0.9,0.2,1.8,0.3,2.7c0.1,0.7,0.1,1.4,0.1,2.1c0,0.1,0,0.2,0.2,0.2c0.3,0,0.7,0,1,0c1.6-0.1,3.2-0.3,4.7-0.5
	c1.2-0.2,2.4-0.5,3.5-0.8c1.6-0.5,3.1-1.5,4.4-2.5c0.6-0.4,1-0.9,1.3-1.6C51.2,22,51,21.3,50.2,20.7z M41.3,25.8
	c-0.2-1.7-0.5-3.3-0.7-5c0.9,0.2,4.7,1.7,4.9,1.9C44.1,23.7,42.7,24.7,41.3,25.8z"/>
</svg>
