<?xml version="1.0" encoding="utf-8"?>
<!-- Generator: Adobe Illustrator 22.0.0, SVG Export Plug-In . SVG Version: 6.00 Build 0)  -->
<svg version="1.1"
	 id="svg3070" inkscape:version="0.48.0 r9654" sodipodi:docname="New document 4" xmlns:cc="http://creativecommons.org/ns#" xmlns:dc="http://purl.org/dc/elements/1.1/" xmlns:inkscape="http://www.inkscape.org/namespaces/inkscape" xmlns:rdf="http://www.w3.org/1999/02/22-rdf-syntax-ns#" xmlns:sodipodi="http://sodipodi.sourceforge.net/DTD/sodipodi-0.dtd" xmlns:svg="http://www.w3.org/2000/svg"
	 xmlns="http://www.w3.org/2000/svg" xmlns:xlink="http://www.w3.org/1999/xlink" x="0px" y="0px" viewBox="0 0 105.3 30.5"
	 style="enable-background:new 0 0 105.3 30.5;" xml:space="preserve">
<style type="text/css">
	.st0{fill:#006699;}
	.st1{fill:#FFFFFF;}
</style>
<sodipodi:namedview  bordercolor="#666666" borderopacity="1.0" fit-margin-bottom="0" fit-margin-left="0" fit-margin-right="0" fit-margin-top="0" id="base" inkscape:current-layer="layer1" inkscape:cx="142.93233" inkscape:cy="33.703355" inkscape:document-units="px" inkscape:pageopacity="0.0" inkscape:pageshadow="2" inkscape:window-height="750" inkscape:window-maximized="1" inkscape:window-width="1280" inkscape:window-x="-8" inkscape:window-y="-8" inkscape:zoom="2.8" pagecolor="#ffffff" showgrid="false">
	</sodipodi:namedview>
<path id="path14" inkscape:connector-curvature="0" class="st0" d="M77.3,3.7c0-1.1,0.9-1.9,2-1.9h23c1.1,0,2,0.9,2,1.9V27
	c0,1.1-0.9,1.9-2,1.9h-23c-1.1,0-2-0.9-2-1.9V3.7z"/>
<path id="path16" inkscape:connector-curvature="0" d="M1.8,24.5H13v-3.7H5.9V6.7H1.8C1.8,6.7,1.8,24.5,1.8,24.5z"/>
<rect x="14.7" y="12.3" width="4.1" height="12.3"/>
<path d="M16.7,10.6c1.4,0,2.3-0.9,2.3-2.1c0-1.2-0.9-2.1-2.3-2.1c-1.4,0-2.3,0.9-2.3,2.1C14.4,9.7,15.3,10.6,16.7,10.6L16.7,10.6
	L16.7,10.6z"/>
<path id="path20" inkscape:connector-curvature="0" d="M20.6,24.5h4.1v-6.8c0-0.4,0-0.7,0.1-1c0.3-0.7,1-1.5,2.1-1.5
	c1.5,0,2.1,1.1,2.1,2.8v6.6h4.1v-7c0-3.8-2-5.5-4.7-5.5c-2.2,0-3.2,1.2-3.7,2.1h0v-1.8h-4.1C20.7,13.4,20.6,24.5,20.6,24.5
	L20.6,24.5z"/>
<path id="path22" inkscape:connector-curvature="0" d="M38.8,6.7h-4.1v17.8h4.1v-4l1-1.3l3.2,5.3h5l-5.4-7.6l4.7-5.2h-4.9
	c0,0-3.4,4.6-3.6,5.2L38.8,6.7L38.8,6.7z"/>
<path d="M59.1,17.8c0-3.2-1.6-6.4-5.8-6.4c-4.5,0-6.6,3.6-6.6,6.8c0,4,2.6,6.5,7,6.5c1.8,0,3.4-0.3,4.7-0.8l-0.5-2.7
	c-1.1,0.4-2.2,0.5-3.6,0.5c-1.9,0-3.6-0.8-3.7-2.4l8.4,0C59,19.1,59.1,18.5,59.1,17.8z M50.5,16.7c0.1-1,0.8-2.6,2.5-2.6
	c1.8,0,2.3,1.6,2.3,2.6H50.5z"/>
<path d="M73.2,20.7v-14h-4.1v6.2h-0.1c-0.6-0.9-1.8-1.4-3.5-1.4c-3.1,0-5.9,2.5-5.9,6.8c0,4,2.5,6.6,5.6,6.6c1.7,0,3.3-0.7,4.1-2.1
	h0.1l0.2,1.9h3.6C73.3,23.7,73.2,22.2,73.2,20.7z M69.2,18.9c0,0.3,0,0.6-0.1,0.9c-0.2,1.1-1.2,1.9-2.4,1.9c-1.7,0-2.8-1.4-2.8-3.5
	c0-2,0.9-3.6,2.8-3.6c1.3,0,2.1,0.9,2.4,1.9c0.1,0.2,0.1,0.5,0.1,0.7V18.9z"/>
<rect x="81.4" y="12.3" class="st1" width="4.1" height="12.3"/>
<path class="st1" d="M83.5,10.6c1.4,0,2.3-0.9,2.3-2.1c0-1.2-0.9-2.1-2.3-2.1c-1.4,0-2.3,0.9-2.3,2.1C81.2,9.6,82.1,10.6,83.5,10.6
	L83.5,10.6L83.5,10.6z"/>
<path id="path30" inkscape:connector-curvature="0" class="st1" d="M87.8,24.5h4.1v-6.8c0-0.4,0-0.7,0.1-1c0.3-0.7,1-1.5,2.1-1.5
	c1.5,0,2.1,1.1,2.1,2.8v6.6h4.1v-7c0-3.8-2-5.5-4.7-5.5c-2.2,0-3.2,1.2-3.7,2.1h0v-1.8h-4.1C87.8,13.4,87.8,24.5,87.8,24.5
	L87.8,24.5z"/>
</svg>
